<svg width="204" height="50" viewBox="0 0 204 50" class="brand-logo" fill="none" xmlns="http://www.w3.org/2000/svg">
    <path fill-rule="evenodd" clip-rule="evenodd" d="M28.6868 5.04571L33.1337 0.598719C33.9699 -0.199573 35.3001 -0.199573 36.0984 0.598719C36.8964 1.43485 36.8964 2.76508 36.0984 3.56338L31.6514 8.01036C30.7391 8.88433 29.7131 9.6067 28.5347 10.0627C27.3946 10.5187 26.2162 10.7468 25 10.7468C23.7837 10.7468 22.6053 10.5187 21.4653 10.0627C20.2869 9.6067 19.2606 8.92241 18.3485 8.01036L13.9016 3.56338C13.1035 2.72725 13.1035 1.39701 13.9016 0.598719C14.7377 -0.199573 16.0682 -0.199573 16.8662 0.598719L21.3132 5.04571C23.3277 7.09806 26.6344 7.09806 28.6868 5.04571ZM16.8661 14.7377C15.8019 14.0915 14.8137 13.2934 13.9395 12.4192L9.45444 7.97223C8.6564 7.13635 8.6564 5.80586 9.45444 5.00757C10.2906 4.20953 11.6211 4.20953 12.4191 5.00757L16.8661 9.45456C18.1963 10.785 19.7927 11.7352 21.4652 12.2674C23.7836 13.0273 26.2542 13.0273 28.5726 12.2674C30.2832 11.7352 31.8415 10.785 33.1717 9.45456L37.6187 5.00757C38.4548 4.20953 39.785 4.20953 40.5833 5.00757C41.3814 5.8437 41.3814 7.17418 40.5833 7.97223L36.1364 12.4192L35.7943 12.7612C35.1481 13.3693 34.426 13.9015 33.7036 14.3957C33.6087 14.4527 33.5232 14.5097 33.4377 14.5667C33.3522 14.6237 33.2667 14.6807 33.1717 14.7377C32.1454 15.3839 31.0051 15.878 29.865 16.2581C28.3065 16.7522 26.6724 17.0183 25.0379 17.0183C24.2777 17.0183 23.5556 16.9802 22.8335 16.8662C22.7004 16.8472 22.5769 16.8282 22.4534 16.8092C22.3299 16.7902 22.2063 16.7712 22.0733 16.7522C22.0353 16.7522 21.9973 16.7427 21.9593 16.7332C21.9212 16.7236 21.8832 16.7141 21.8453 16.7141C21.7885 16.6953 21.7316 16.6858 21.6748 16.6763C21.6176 16.6668 21.5604 16.6573 21.5032 16.6382C21.047 16.5242 20.591 16.4102 20.1728 16.2581C20.1158 16.239 20.0683 16.2201 20.0208 16.2011C19.9733 16.1821 19.9258 16.1631 19.8688 16.1441C19.7551 16.1441 19.679 16.1062 19.6032 16.0684L19.6027 16.0682C19.5352 16.0411 19.463 16.0093 19.3876 15.976L19.3875 15.976C19.2507 15.9158 19.1037 15.851 18.9565 15.8021C18.9186 15.783 18.8901 15.7735 18.8616 15.764C18.8331 15.7545 18.8046 15.7449 18.7666 15.7259C18.1204 15.422 17.4742 15.1178 16.8661 14.7377ZM14.7756 33.1717C14.1297 34.236 13.3314 35.2243 12.4572 36.0985L7.97236 40.5452C7.13599 41.3435 5.80575 41.3435 5.00771 40.5452C4.20941 39.7091 4.20941 38.3789 5.00771 37.5806L9.45444 33.1336C9.75863 32.8675 10.0247 32.5635 10.2527 32.2596C10.5567 31.9173 10.8228 31.5372 11.0508 31.1571C11.0887 31.1001 11.1267 31.0337 11.1648 30.9673L11.1648 30.9672C11.2028 30.9008 11.2408 30.8343 11.2788 30.7773C11.3109 30.7237 11.343 30.6732 11.3743 30.624L11.3743 30.6239C11.4541 30.4984 11.5284 30.3815 11.583 30.2451C11.8491 29.7131 12.0771 29.1429 12.2673 28.5728C13.0272 26.2544 13.0272 23.7838 12.2673 21.4651C11.7351 19.7548 10.7849 18.1965 9.45444 16.8663L5.00771 12.4193C4.20941 11.5829 4.20941 10.2527 5.00771 9.45466C5.84383 8.65636 7.17407 8.65636 7.97236 9.45466L12.4191 13.9016C13.2933 14.7756 14.0916 15.7638 14.7378 16.8282C15.3078 17.7403 15.7639 18.7666 16.144 19.7929C16.182 19.9066 16.2201 20.0206 16.258 20.1349C16.277 20.1728 16.2865 20.2109 16.2961 20.2489C16.3056 20.2869 16.3151 20.3249 16.3341 20.3629C16.7902 21.8833 17.0182 23.4416 17.0182 25.0001C17.0182 25.5288 16.9806 26.0201 16.9429 26.5112L16.9423 26.5202L16.9422 26.521C16.9041 26.9387 16.866 27.3566 16.7902 27.7745C16.7902 27.8885 16.7902 27.9645 16.7521 28.0785C16.714 28.3067 16.6762 28.4967 16.6381 28.6868C16.6192 28.7437 16.6098 28.791 16.6003 28.8384C16.5908 28.886 16.5813 28.9337 16.5622 28.991C16.5241 29.1434 16.4765 29.2862 16.4288 29.4291L16.4288 29.4291C16.3814 29.5713 16.334 29.7134 16.2961 29.865C15.954 30.9672 15.4599 32.0316 14.8896 33.0198C14.8708 33.0386 14.8519 33.067 14.833 33.0953C14.8139 33.124 14.7948 33.1527 14.7756 33.1717ZM91.5905 43.662C91.8566 44.1942 92.2367 44.6122 92.7308 44.9164C93.2249 45.2203 93.8711 45.4105 94.6311 45.3343C95.0874 45.3343 95.5434 45.2581 95.9235 45.1063C96.3036 44.9539 96.6456 44.764 96.9495 44.4979L96.6075 43.7758C96.0375 44.308 95.3913 44.5741 94.6311 44.5741C94.137 44.5741 93.719 44.4601 93.377 44.2321C92.9969 44.0041 92.7686 43.7001 92.5787 43.3198C92.3888 42.9397 92.3129 42.4836 92.3129 41.9895C92.3129 41.4954 92.3888 41.0394 92.5787 40.6593C92.7686 40.2792 93.0347 39.9753 93.4148 39.747C93.7571 39.5192 94.2131 39.4052 94.7073 39.4052C95.0493 39.4052 95.3913 39.4812 95.6955 39.5952C95.9994 39.7092 96.2655 39.861 96.4557 40.0512L96.7977 39.291C96.5316 39.0632 96.2277 38.873 95.8473 38.759C95.4672 38.645 95.0874 38.5689 94.6692 38.5689C93.947 38.5689 93.3008 38.7207 92.7686 39.0249C92.2367 39.3671 91.8566 39.7473 91.5905 40.2792C91.3244 40.7733 91.2104 41.3433 91.2104 41.9517C91.2104 42.5598 91.3244 43.1298 91.5905 43.662ZM77.8315 39.5192H75.7411V45.2584H74.6388V39.5192H72.5484V38.7207H77.8315V39.5192ZM86.6875 44.4603V45.2586H82.5825V38.7211H86.4975V39.5192H83.6847V41.4197H86.1174V42.218H83.6847V44.4603H86.6875ZM107.326 38.7211V45.2585H106.224V42.2177H102.917V45.2585H101.815V38.7211H102.917V41.3815H106.224V38.7211H107.326ZM118.349 45.2585V38.7211H117.284V41.1535L117.36 43.586L113.825 38.683H112.837V45.2202H113.939V42.598L113.863 40.3552L117.398 45.2585H118.349ZM127.812 44.2322C128.154 44.0042 128.382 43.7003 128.573 43.3199C128.725 42.9401 128.839 42.4838 128.839 41.9899C128.839 41.4956 128.763 41.0776 128.573 40.6595C128.421 40.2796 128.154 39.9754 127.812 39.7474C127.47 39.5191 127.09 39.4051 126.634 39.4051C126.178 39.4051 125.76 39.5191 125.456 39.7474C125.114 39.9754 124.886 40.2796 124.696 40.6595C124.544 41.0396 124.43 41.4956 124.43 41.9899C124.43 42.4838 124.506 42.9401 124.696 43.3199C124.848 43.7003 125.114 44.0042 125.456 44.2322C125.798 44.4602 126.178 44.5742 126.634 44.5742C127.09 44.5742 127.47 44.4602 127.812 44.2322ZM124.848 44.9543C124.354 44.6502 123.974 44.2322 123.746 43.7381C123.479 43.2059 123.365 42.6359 123.365 42.0278C123.365 41.3816 123.479 40.8115 123.746 40.3174C124.012 39.7852 124.354 39.4051 124.848 39.1009C125.342 38.797 125.95 38.6449 126.634 38.6449C127.318 38.6449 127.926 38.797 128.421 39.1009C128.915 39.4051 129.295 39.8231 129.523 40.3174C129.789 40.8494 129.903 41.4194 129.903 42.0278C129.903 42.6737 129.789 43.244 129.523 43.7381C129.257 44.2701 128.915 44.6502 128.421 44.9543C127.926 45.2585 127.318 45.4104 126.634 45.4104C125.95 45.4104 125.342 45.2585 124.848 44.9543ZM139.025 45.2586V44.4603H136.022V38.7211H134.92V45.2586H139.025ZM147.729 44.2322C148.071 44.0042 148.299 43.7003 148.489 43.3199C148.641 42.9401 148.755 42.4838 148.755 41.9899C148.755 41.4956 148.679 41.0776 148.489 40.6595C148.337 40.2796 148.071 39.9754 147.729 39.7474C147.387 39.5191 147.007 39.4051 146.551 39.4051C146.095 39.4051 145.676 39.5191 145.372 39.7474C145.03 39.9754 144.802 40.2796 144.612 40.6595C144.46 41.0396 144.346 41.4956 144.346 41.9899C144.346 42.4838 144.422 42.9401 144.612 43.3199C144.764 43.7003 145.03 44.0042 145.372 44.2322C145.714 44.4602 146.095 44.5742 146.551 44.5742C147.007 44.5742 147.387 44.4602 147.729 44.2322ZM144.764 44.9543C144.27 44.6502 143.89 44.2322 143.662 43.7381C143.396 43.2059 143.282 42.6359 143.282 42.0278C143.282 41.3816 143.396 40.8115 143.662 40.3174C143.928 39.7852 144.27 39.4051 144.764 39.1009C145.258 38.797 145.866 38.6449 146.551 38.6449C147.235 38.6449 147.843 38.797 148.337 39.1009C148.831 39.4051 149.211 39.8231 149.439 40.3174C149.705 40.8494 149.819 41.4194 149.819 42.0278C149.819 42.6737 149.705 43.244 149.439 43.7381C149.173 44.2701 148.831 44.6502 148.337 44.9543C147.843 45.2585 147.235 45.4104 146.551 45.4104C145.866 45.4104 145.258 45.2585 144.764 44.9543ZM160.043 44.8785V42.1418L159.017 42.1794V44.46C158.637 44.574 158.219 44.6121 157.763 44.6121C157.269 44.6121 156.851 44.4981 156.509 44.2701C156.129 44.0421 155.901 43.7379 155.71 43.3581C155.521 42.978 155.445 42.5219 155.445 42.0276C155.445 41.5335 155.521 41.0774 155.71 40.6973C155.901 40.3172 156.205 40.0133 156.547 39.7853C156.889 39.5573 157.345 39.443 157.839 39.443C158.181 39.443 158.523 39.5192 158.827 39.6332C159.131 39.7472 159.397 39.8993 159.587 40.0895L159.929 39.329C159.663 39.101 159.359 38.9108 158.979 38.7968C158.599 38.6828 158.219 38.6071 157.801 38.6071C157.079 38.6071 156.433 38.759 155.901 39.0632C155.368 39.4052 154.988 39.7853 154.723 40.3175C154.456 40.8113 154.342 41.3816 154.342 41.9897C154.342 42.5979 154.456 43.1679 154.723 43.7001C154.988 44.2323 155.368 44.6502 155.863 44.9544C156.357 45.2583 157.003 45.4104 157.725 45.4104C158.219 45.4104 158.637 45.3345 159.055 45.2583C159.435 45.1443 159.777 45.0303 160.043 44.8785ZM165.137 45.2585H166.239V38.7211H165.137V45.2585ZM175.855 45.2586V44.4603H172.852V42.218H175.285V41.4197H172.852V39.5192H175.665V38.7211H171.75V45.2586H175.855ZM180.34 44.8403L180.644 44.042C181.214 44.3842 181.86 44.5742 182.582 44.5742C183 44.5742 183.342 44.4982 183.609 44.3081C183.875 44.1181 184.027 43.852 184.027 43.5098C184.027 43.3198 183.951 43.1299 183.837 42.9778C183.723 42.8257 183.533 42.7117 183.342 42.6358L183.298 42.6179L183.237 42.5932L183.232 42.5912C183.054 42.5186 182.825 42.4251 182.544 42.3316C182.186 42.2015 181.884 42.0711 181.637 41.9647L181.518 41.9134C181.252 41.7994 181.024 41.6093 180.834 41.3434C180.644 41.1154 180.568 40.8115 180.568 40.4311C180.568 39.8232 180.796 39.367 181.214 39.0628C181.632 38.7208 182.202 38.5689 182.886 38.5689C183.647 38.5689 184.293 38.7589 184.863 39.139L184.559 39.8992C184.027 39.5571 183.457 39.4051 182.924 39.4051C182.544 39.4051 182.24 39.481 182.012 39.6709C181.784 39.8232 181.67 40.0891 181.67 40.3933C181.67 40.5832 181.746 40.735 181.86 40.8874C181.974 41.0392 182.126 41.1154 182.354 41.2294L182.406 41.2501L182.472 41.2771C182.649 41.3491 182.876 41.4413 183.153 41.5336C183.571 41.6854 183.913 41.8375 184.179 41.9894C184.445 42.1415 184.673 42.2935 184.863 42.5594C185.053 42.8257 185.129 43.0916 185.129 43.4717C185.129 44.0801 184.901 44.5361 184.445 44.8778C183.989 45.2201 183.381 45.41 182.62 45.41C181.708 45.4103 180.948 45.2204 180.34 44.8403ZM195.695 11.317H203.411V9.34055H185.281V11.317H193.111V31.7654H195.695V11.317ZM108.77 19.6407H104.057V11.3551H108.77C110.367 11.3551 111.583 11.7352 112.457 12.4573C113.331 13.1792 113.749 14.2058 113.749 15.4979C113.749 18.2724 112.077 19.6407 108.77 19.6407ZM104.095 21.6172H108.276L115.498 31.7655H118.462L110.975 21.3132C112.723 21.0091 114.054 20.3629 114.966 19.3368C115.878 18.3105 116.334 16.9803 116.334 15.3839C116.334 13.5596 115.688 12.077 114.396 10.975C113.103 9.87254 111.241 9.3406 108.808 9.3406H101.511V31.7655H104.095V21.6172ZM89.2721 20.5911C89.2721 23.4037 88.5881 25.6462 87.1436 27.3185C85.6993 28.9527 83.6848 29.789 81.1003 29.865H75.095V11.393H81.1003C83.7229 11.393 85.6993 12.2291 87.1436 13.9016C88.55 15.5739 89.2721 17.8164 89.2721 20.5911ZM90.6023 14.8137C89.7662 13.1033 88.55 11.7731 86.9536 10.823C85.3573 9.83473 83.3806 9.34062 81.1383 9.34062H72.5483V31.7655H81.1383C83.4187 31.7655 85.3951 31.2714 86.9915 30.321C88.5878 29.3709 89.8043 28.0787 90.6023 26.3684C91.4004 24.6959 91.8186 22.7575 91.8186 20.5531C91.8186 18.4245 91.4004 16.524 90.6023 14.8137ZM128.877 31.7657H131.461V9.34062H128.877V31.7657ZM151.986 21.8833L159.055 31.7655H162.21L153.696 20.173L161.602 9.37848H158.523L152.024 18.5007L145.486 9.37848H142.408L150.313 20.173L141.8 31.7655H144.916L151.986 21.8833ZM172.548 31.7657H175.133V9.34062H172.548V31.7657ZM40.5454 41.9896L36.0984 37.5427C35.2242 36.6687 34.236 35.8704 33.1719 35.2242C32.1455 34.578 31.0052 34.0839 29.8652 33.704C29.2571 33.5139 28.6489 33.3618 28.0406 33.2478C27.8885 33.2097 27.6986 33.1718 27.5465 33.1718C26.7103 33.0578 25.8742 32.9817 25.0378 32.9817C23.4037 32.9817 21.7692 33.2478 20.211 33.7419C19.0707 34.122 17.9304 34.6161 16.9041 35.262C16.8662 35.3004 16.7901 35.3382 16.7522 35.3382C16.1441 35.7183 15.536 36.1365 15.0038 36.5925C14.9468 36.6495 14.8898 36.6971 14.8328 36.7446C14.7758 36.7922 14.7188 36.8397 14.6618 36.8967C14.4352 37.0854 14.2084 37.312 13.9819 37.5383L13.9775 37.5427L9.53051 41.9896C8.73247 42.7879 8.73247 44.1182 9.53051 44.9543C10.3288 45.7526 11.659 45.7526 12.4952 44.9543L16.9422 40.5073C18.2724 39.1771 19.8309 38.2267 21.5412 37.6947C23.8597 36.9345 26.3302 36.9345 28.6489 37.6947C30.3212 38.2267 31.9175 39.1771 33.2478 40.5073L37.6948 44.9543C38.493 45.7526 39.8233 45.7526 40.6594 44.9543C41.3437 44.156 41.3437 42.8258 40.5454 41.9896ZM40.5074 33.1338L44.9544 37.5808C45.7905 38.3791 45.7905 39.7091 44.9924 40.5452C44.1561 41.3438 42.8258 41.3438 42.0278 40.5452L37.5808 36.0985C36.7066 35.2243 35.9083 34.236 35.2623 33.1717C34.8063 32.4495 34.4262 31.6893 34.122 30.8913C33.9722 30.5544 33.8596 30.2172 33.747 29.8802L33.7419 29.865L33.3999 28.6107L33.3497 28.4098L33.2859 28.1546C33.0957 27.2423 32.9817 26.2922 32.9817 25.3421V25.0379C32.9817 24.0878 33.0957 23.1376 33.2478 22.2253C33.2478 22.0735 33.2859 21.9214 33.324 21.7693C33.324 21.7313 33.3335 21.6933 33.3429 21.6553C33.3524 21.6173 33.3618 21.5793 33.3618 21.5413C33.3618 21.39 33.3995 21.2763 33.4372 21.1629L33.4377 21.1612C33.4377 21.1233 33.4473 21.0948 33.4568 21.0663C33.4663 21.0377 33.4758 21.0091 33.4758 20.971L33.5898 20.572L33.7038 20.173C33.7227 20.135 33.7321 20.0972 33.7416 20.0593C33.7511 20.0212 33.7606 19.9831 33.7798 19.945C34.1599 18.8806 34.6161 17.8543 35.2243 16.8663C35.2431 16.8474 35.262 16.819 35.2809 16.7907C35.3 16.762 35.3191 16.7333 35.3383 16.7142C35.7184 16.1058 36.1366 15.5358 36.5926 14.9658C36.7825 14.6997 36.9727 14.4717 37.2007 14.2437L37.5427 13.9016L41.9897 9.45466C42.8258 8.65636 44.1561 8.65636 44.9544 9.45466C45.7527 10.2908 45.7527 11.621 44.9544 12.4193L40.5074 16.8663C40.2599 17.0784 40.0783 17.2904 39.8704 17.5332L39.8231 17.5884C39.8231 17.6265 39.7853 17.6643 39.7472 17.7024C39.3292 18.2346 38.9491 18.8047 38.6069 19.3747C38.569 19.4887 38.4928 19.6408 38.4169 19.7548C38.2648 20.0209 38.113 20.3248 37.999 20.629C37.8847 20.8951 37.7707 21.1612 37.6948 21.4273C36.9346 23.7457 36.9346 26.2163 37.6948 28.5347C38.2268 30.2453 39.1771 31.8033 40.5074 33.1338ZM8.01017 18.3485L3.56319 13.9015C2.76515 13.1032 1.43491 13.1032 0.598531 13.9015C-0.199511 14.6998 -0.199511 16.0301 0.598531 16.8662L5.04552 21.3132C7.09788 23.3655 7.09788 26.6725 5.04552 28.6867L0.598531 33.1337C-0.199511 33.932 -0.199511 35.262 0.598531 36.0984C1.39682 36.8967 2.72706 36.8967 3.56319 36.0984L8.01017 31.6514C8.92247 30.7394 9.60651 29.713 10.0625 28.5349C10.5188 27.3946 10.7468 26.2162 10.7468 25C10.7468 23.7837 10.5188 22.6053 10.0625 21.465C9.60676 20.2869 8.92247 19.2227 8.01017 18.3485ZM44.9544 21.3133C42.902 23.3275 42.902 26.6345 44.9544 28.6868L49.4013 33.1338C50.1996 33.9699 50.2375 35.3004 49.4013 36.0985C48.5652 36.8968 47.235 36.8968 46.4367 36.0985L41.9897 31.6515C41.1155 30.7392 40.3934 29.7131 39.9373 28.535C39.4811 27.3947 39.2531 26.2163 39.2531 25C39.2531 23.7838 39.4811 22.6054 39.9373 21.4651C40.3934 20.287 41.0774 19.2607 41.9897 18.3486L46.4367 13.9016C47.2728 13.1033 48.6033 13.1033 49.4013 13.9016C50.1996 14.7377 50.1996 16.068 49.4013 16.8663L44.9544 21.3133ZM31.6514 41.9896C30.7391 41.0773 29.7131 40.3933 28.5349 39.9373C27.3946 39.481 26.2162 39.253 25 39.253C23.7837 39.253 22.6053 39.481 21.4653 39.9373C20.2869 40.3933 19.2606 41.1157 18.3485 41.9896L13.9016 46.4366C13.1035 47.2349 13.1035 48.5652 13.9016 49.4013C14.6998 50.1996 16.0301 50.1996 16.8662 49.4013L21.3132 44.9543C23.3658 42.9019 26.6722 42.9019 28.6868 44.9543L33.1337 49.4013C33.932 50.1996 35.2623 50.1996 36.0984 49.4013C36.8967 48.6032 36.8967 47.2728 36.0984 46.4366L31.6514 41.9896Z" fill="#ffffff"></path>
</svg>